<?xml version="1.0" standalone="no"?>
<!DOCTYPE svg PUBLIC "-//W3C//DTD SVG 20010904//EN"
 "http://www.w3.org/TR/2001/REC-SVG-20010904/DTD/svg10.dtd">
<svg version="1.0" xmlns="http://www.w3.org/2000/svg"
 width="277.000000pt" height="277.000000pt" viewBox="0 0 277.000000 277.000000"
 preserveAspectRatio="xMidYMid meet">
<metadata>
Created by potrace 1.14, written by Peter Selinger 2001-2017
</metadata>
<g transform="translate(0.000000,277.000000) scale(0.100000,-0.100000)"
fill="#000000" stroke="none">
<path d="M1248 2575 c-2 -2 -19 -6 -38 -9 -19 -3 -46 -8 -60 -11 -14 -3 -34
-7 -45 -9 -11 -2 -33 -9 -50 -16 -16 -6 -30 -11 -30 -10 0 1 -13 -3 -28 -9
-16 -6 -33 -11 -38 -11 -5 0 -17 -4 -27 -9 -9 -5 -41 -21 -71 -36 -85 -42 -87
-43 -164 -100 -26 -19 -49 -35 -52 -35 -8 0 -175 -173 -175 -182 0 -5 -5 -6
-12 -2 -6 4 -8 3 -4 -4 3 -6 -1 -17 -9 -25 -8 -9 -15 -21 -15 -27 0 -7 -7 -10
-14 -7 -11 4 -13 1 -9 -10 4 -11 2 -14 -5 -9 -8 5 -10 2 -6 -8 4 -9 -1 -18
-10 -22 -9 -3 -14 -9 -11 -14 2 -4 -4 -16 -15 -27 -10 -12 -16 -23 -14 -26 3
-3 -3 -18 -13 -33 -18 -28 -36 -71 -54 -131 -6 -18 -14 -33 -18 -33 -5 0 -8
-10 -7 -22 0 -13 -4 -23 -11 -23 -6 0 -15 -4 -20 -8 -4 -5 -2 -7 6 -5 7 2 15
-5 16 -14 2 -10 0 -18 -4 -18 -4 0 -8 -14 -9 -32 -2 -18 -8 -36 -15 -40 -8 -5
-8 -8 -1 -8 8 0 9 -13 3 -44 -4 -25 -9 -71 -11 -103 -1 -32 -7 -61 -13 -65 -6
-5 -5 -8 3 -8 7 0 12 -13 12 -31 0 -17 -4 -28 -10 -24 -5 3 -10 2 -10 -4 0 -5
5 -11 11 -13 6 -2 13 -16 14 -31 2 -16 -1 -25 -7 -21 -6 4 -3 -5 7 -19 12 -18
13 -27 4 -32 -8 -6 -8 -9 1 -15 7 -4 14 -18 15 -31 2 -13 6 -32 10 -41 4 -11
3 -18 -5 -18 -6 0 -8 -5 -5 -10 4 -6 11 -8 16 -5 5 4 9 1 9 -5 0 -6 -12 -15
-26 -20 -14 -6 -22 -14 -19 -20 3 -5 8 -10 11 -10 3 0 2 5 -1 10 -3 6 -2 10 4
10 5 0 17 3 27 7 12 4 15 3 10 -5 -4 -7 -4 -18 1 -25 4 -6 8 -15 9 -19 1 -5 2
-9 4 -10 1 -2 3 -12 5 -22 2 -10 9 -22 16 -26 6 -4 12 -19 12 -34 0 -14 3 -26
8 -26 4 0 11 -9 14 -20 3 -11 13 -27 21 -35 9 -8 11 -15 6 -15 -6 0 -19 16
-31 35 -11 19 -26 35 -33 35 -6 0 -3 -7 8 -15 19 -15 19 -15 0 -30 -11 -8 -15
-15 -10 -15 6 0 15 5 22 12 7 7 12 8 12 2 0 -6 -3 -14 -7 -18 -14 -14 -11 -35
4 -29 11 4 11 8 3 13 -7 4 -8 10 -3 13 5 3 23 -6 41 -19 24 -19 30 -30 23 -42
-10 -20 -4 -42 11 -42 7 0 6 5 -1 14 -9 11 -9 16 0 22 7 4 9 3 5 -4 -3 -6 1
-15 10 -20 9 -5 15 -12 15 -15 -3 -20 0 -27 10 -27 16 0 55 -52 51 -68 -2 -8
1 -11 7 -7 7 4 8 0 4 -11 -6 -16 -7 -15 -20 2 -9 13 -10 20 -2 25 8 5 8 8 0
13 -11 7 -16 -8 -11 -29 1 -5 3 -15 3 -22 0 -7 4 -10 8 -7 4 2 15 -6 23 -18 9
-12 16 -18 16 -12 0 5 -5 15 -10 20 -8 8 -6 15 5 24 13 11 14 10 9 -5 -5 -11
-3 -16 2 -12 6 4 9 -6 6 -23 -2 -17 -7 -28 -11 -25 -4 2 -8 -2 -8 -10 0 -39
25 -3 36 51 0 4 8 1 16 -6 8 -6 13 -17 12 -23 -1 -7 4 -11 11 -9 8 1 11 -2 7
-8 -3 -5 1 -13 9 -16 9 -3 13 -10 10 -15 -3 -5 0 -9 5 -9 6 0 11 4 11 9 0 5
16 -5 35 -21 19 -17 31 -36 28 -41 -4 -6 0 -8 11 -4 10 4 15 3 11 -3 -3 -6
-18 -7 -32 -4 -22 6 -25 4 -20 -10 4 -10 7 -19 7 -22 0 -2 16 5 36 16 19 11
32 16 29 10 -4 -7 0 -10 11 -8 11 2 19 -3 19 -12 1 -8 7 -14 14 -12 7 1 20 -3
28 -10 9 -7 23 -13 32 -13 9 0 16 -7 16 -15 0 -10 9 -14 25 -13 23 2 23 2 5
-6 -11 -5 -17 -10 -12 -12 21 -5 33 -4 39 5 4 6 10 7 14 4 3 -4 -1 -14 -9 -22
-11 -12 -16 -13 -19 -4 -3 7 -7 3 -10 -10 -5 -19 -3 -20 12 -12 13 7 21 7 25
0 3 -5 -2 -10 -12 -10 -14 0 -15 -2 -4 -9 11 -7 10 -11 -5 -20 -11 -6 -13 -11
-7 -11 7 0 20 11 29 25 16 24 43 37 28 13 -4 -7 -3 -8 4 -4 7 4 12 3 12 -2 0
-5 -8 -12 -18 -14 -21 -6 -26 -35 -5 -35 10 0 10 3 0 16 -10 12 -9 14 5 9 21
-8 33 19 17 38 -9 11 -9 14 0 14 7 0 9 5 5 12 -4 7 -3 8 4 4 6 -4 8 -14 5 -23
-5 -12 -3 -14 8 -7 20 12 39 14 39 3 0 -5 -5 -9 -11 -9 -5 0 -7 -6 -3 -12 5
-9 2 -9 -9 1 -9 7 -17 9 -17 5 0 -5 9 -15 20 -22 11 -6 18 -17 16 -24 -1 -7
-1 -10 1 -6 3 4 4 10 3 14 -1 4 4 11 12 16 9 7 7 8 -7 3 -15 -5 -17 -3 -8 6
13 13 36 2 27 -13 -5 -7 -1 -9 9 -5 10 4 20 0 25 -10 8 -13 10 -13 16 3 4 10
4 15 0 12 -3 -4 -13 -1 -20 7 -18 17 -18 22 1 22 8 0 12 -5 8 -10 -3 -5 5 -7
18 -3 13 3 18 3 11 0 -6 -3 -9 -10 -6 -15 3 -6 12 -5 22 3 12 10 14 10 8 1 -9
-17 6 -17 23 0 10 8 12 8 7 0 -4 -8 3 -11 21 -11 44 1 53 -1 53 -13 0 -8 -4
-8 -14 0 -11 9 -16 9 -21 0 -6 -8 -10 -7 -16 2 -5 8 -9 9 -9 3 0 -6 -7 -11
-15 -11 -8 0 -11 5 -8 10 4 6 1 7 -6 2 -9 -5 -10 -10 -2 -18 18 -18 12 -28 -8
-15 -11 6 -17 19 -14 27 4 13 3 13 -5 2 -8 -11 -10 -11 -15 0 -4 11 -6 11 -6
-1 -1 -8 13 -23 29 -32 27 -15 32 -15 36 -3 4 8 10 12 15 9 5 -3 5 -15 -2 -27
-8 -19 -8 -20 3 -7 8 10 28 15 55 14 28 -1 44 3 47 13 4 9 1 12 -7 8 -6 -4 -4
0 7 9 18 14 18 15 -2 13 -11 0 -18 -5 -15 -11 3 -5 1 -6 -5 -2 -22 14 -12 24
22 22 18 -1 41 -8 50 -15 15 -13 15 -16 1 -37 -9 -13 -11 -24 -5 -24 5 0 10 5
10 11 0 8 4 8 14 0 13 -11 21 -6 39 26 8 13 -11 12 -32 -1 -10 -6 -12 -5 -7 3
4 6 2 18 -4 26 -9 11 -9 15 -1 15 6 0 11 -4 11 -10 0 -5 5 -10 11 -10 5 0 7 6
3 12 -4 7 2 5 14 -5 11 -11 18 -25 15 -33 -6 -16 13 -19 22 -4 4 6 11 7 17 4
6 -4 1 -12 -13 -20 -13 -7 -20 -13 -16 -14 17 0 47 21 42 31 -4 5 1 9 10 9 9
0 13 -4 10 -10 -3 -5 -1 -10 4 -10 6 0 11 4 11 9 0 13 -26 32 -34 24 -14 -14
-33 -10 -46 11 -7 11 -9 18 -5 14 5 -4 15 -2 24 5 14 10 14 10 3 -5 -12 -15
-11 -17 7 -15 12 1 21 6 21 12 0 5 5 2 11 -7 5 -10 15 -18 21 -18 7 0 7 5 -1
14 -8 10 -9 16 -1 21 6 4 9 1 8 -6 -2 -6 3 -14 10 -16 8 -3 10 2 6 14 -5 16
-4 16 7 -2 12 -19 12 -19 20 0 7 17 8 18 8 3 1 -10 6 -18 12 -18 6 0 8 7 5 16
-3 8 -2 13 3 9 5 -3 12 1 15 7 3 7 3 2 0 -12 l-6 -25 22 23 c18 19 24 21 38
10 13 -11 15 -11 10 3 -5 13 -2 16 13 12 21 -6 27 -25 7 -21 -7 2 -12 -3 -10
-10 1 -6 -2 -12 -8 -12 -5 0 -10 4 -10 8 0 5 -7 9 -15 9 -8 0 -11 -5 -8 -10 4
-6 1 -7 -7 -2 -8 5 -11 4 -6 -3 4 -7 -1 -10 -14 -7 -11 2 -20 -1 -20 -7 0 -7
-4 -7 -12 -1 -7 5 -19 8 -25 7 -7 -1 -19 -2 -25 -3 -9 -1 -8 -4 2 -11 12 -8
12 -10 1 -10 -8 0 -12 -3 -8 -6 3 -3 12 -2 19 2 19 12 38 14 38 3 0 -5 5 -9
11 -9 5 0 7 5 3 12 -5 7 -2 9 9 5 8 -3 21 1 27 9 7 8 17 14 23 14 7 0 7 -4 -1
-12 -14 -14 -16 -38 -2 -38 5 0 7 6 4 13 -2 7 9 23 26 35 16 13 30 18 30 13 0
-5 -9 -16 -20 -24 -18 -12 -18 -15 -6 -20 9 -4 15 -1 13 6 -1 7 8 11 23 10 14
-1 17 1 8 3 -17 5 -14 34 4 34 5 0 7 -4 4 -9 -3 -5 1 -12 9 -15 12 -4 13 -2 6
13 -6 10 -7 22 -3 26 4 4 -2 3 -14 -3 -16 -8 -21 -8 -21 3 0 8 7 11 16 7 14
-5 14 -4 1 14 -8 10 -10 16 -6 12 5 -4 15 -3 23 3 9 9 13 8 13 0 0 -6 -5 -11
-11 -11 -5 0 -7 -5 -4 -10 4 -6 10 -8 15 -5 5 3 12 0 16 -6 4 -8 3 -9 -4 -5
-14 8 -15 -3 -3 -22 6 -11 9 -9 13 6 3 11 2 26 -3 33 -9 15 -3 29 13 29 5 0 8
-7 5 -15 -4 -8 -2 -17 3 -20 5 -3 8 -11 6 -18 -1 -7 -1 -9 1 -4 3 4 9 4 15 1
5 -3 12 3 15 15 7 26 20 27 26 4 3 -10 4 -6 4 9 -1 21 -4 25 -18 18 -9 -5 -19
-7 -22 -4 -3 3 -3 -5 0 -18 3 -12 2 -19 -3 -15 -11 10 -13 58 -2 51 4 -3 8 0
8 5 0 6 5 11 11 11 5 0 7 -5 3 -11 -4 -7 -1 -10 7 -7 8 3 12 14 11 24 -2 10
-2 17 0 14 2 -3 10 -14 18 -24 11 -15 12 -18 2 -12 -11 7 -12 4 -3 -13 12 -21
22 -28 20 -13 -3 20 2 33 11 27 6 -4 7 -12 4 -18 -4 -7 4 -2 18 11 13 12 31
22 40 22 9 0 21 6 28 14 6 8 17 13 24 10 7 -3 19 2 26 10 10 13 9 20 -4 40
-11 18 -13 27 -4 32 7 4 8 3 4 -4 -4 -7 -1 -12 9 -12 9 0 14 -4 11 -8 -2 -4 0
-14 6 -22 8 -12 9 -12 4 2 -3 10 -1 20 4 23 5 3 11 -3 13 -12 4 -17 5 -17 6 0
1 12 5 16 14 11 9 -6 9 -4 -1 8 -9 11 -10 18 -2 23 5 3 10 1 10 -6 0 -7 8 -5
20 6 11 10 20 25 19 34 0 11 -4 9 -11 -6 -8 -16 -18 -22 -34 -19 -17 3 -22 0
-19 -14 2 -11 -2 -17 -10 -16 -28 4 -28 16 -2 40 15 14 27 22 27 17 0 -4 7 -8
15 -8 8 0 15 4 15 9 0 4 -5 8 -11 8 -5 0 -7 5 -3 11 4 8 9 7 15 -2 8 -13 13
-6 10 13 0 4 7 4 17 1 15 -6 16 -5 2 13 -8 10 -10 16 -6 12 5 -4 14 0 21 9 11
14 12 14 10 -3 -3 -30 -16 -54 -26 -48 -5 3 -6 -2 -3 -11 6 -14 10 -11 25 11
10 15 15 32 12 38 -4 5 1 7 11 3 10 -4 20 -7 22 -7 3 0 3 -4 0 -8 -3 -5 1 -9
9 -9 11 0 10 5 -3 26 -22 36 -26 40 -18 16 5 -14 4 -17 -4 -9 -18 18 -1 46 24
38 18 -6 19 -5 7 10 -7 9 -11 17 -7 17 3 1 11 2 16 3 6 0 10 6 11 11 1 17 21
35 31 29 5 -3 8 2 6 12 -2 10 3 19 10 19 6 0 12 4 11 9 0 5 5 12 13 17 7 5 13
12 13 16 0 13 59 93 69 93 5 0 2 -8 -5 -18 -11 -14 -11 -15 1 -4 21 18 34 15
19 -5 -12 -16 -12 -16 1 -6 8 6 20 12 25 13 6 1 12 4 15 7 3 4 0 3 -6 0 -11
-6 -43 21 -36 30 2 3 0 8 -4 11 -4 4 -4 1 0 -5 4 -7 2 -13 -3 -13 -12 0 -15
13 -5 23 11 10 45 -13 38 -25 -4 -7 -2 -8 5 -4 12 8 1 30 -24 48 -6 5 -5 8 3
8 7 0 11 4 7 9 -3 5 -1 12 5 16 6 4 8 10 5 15 -5 8 32 26 46 23 3 -1 6 5 6 12
0 11 -4 12 -14 3 -7 -6 -16 -8 -20 -4 -3 3 -1 6 6 6 8 0 11 7 7 15 -6 18 15
20 31 4 9 -9 11 -7 9 7 -2 12 -10 18 -22 16 -15 -3 -16 -1 -5 12 8 9 10 16 7
16 -4 0 -2 9 4 20 6 11 16 17 22 14 7 -5 8 -2 2 7 -12 20 -14 39 -3 39 6 0 7
5 3 12 -5 8 -2 9 9 5 9 -3 19 -2 22 4 4 5 3 9 -2 8 -4 -1 -15 -1 -22 0 -12 1
-12 4 -3 13 7 7 12 20 12 30 0 10 6 18 13 18 8 0 7 3 -3 10 -8 5 -11 12 -8 15
4 4 13 3 20 -1 16 -11 42 -15 33 -6 -4 4 -10 7 -14 7 -12 0 -40 32 -34 39 3 3
11 2 17 -4 7 -5 17 -5 26 2 12 8 12 9 -2 4 -20 -6 -32 10 -31 41 1 13 1 35 2
49 1 17 5 23 14 18 10 -6 10 -4 0 7 -20 21 -16 38 8 34 12 -3 18 -1 15 3 -4 4
-13 7 -19 7 -7 0 -12 14 -12 33 0 17 -4 32 -9 32 -6 0 -1 6 10 14 18 14 18 15
1 21 -14 6 -15 10 -6 21 9 11 8 18 -1 29 -7 8 -9 15 -5 15 4 0 2 7 -5 15 -7 8
-10 15 -7 15 3 0 -1 23 -8 50 -7 28 -11 50 -9 50 3 0 0 10 -7 22 -10 18 -9 20
7 14 14 -5 13 -2 -4 12 -16 12 -25 31 -26 54 -2 20 -10 44 -19 53 -20 20 -21
36 -4 55 10 12 9 12 -5 1 -16 -12 -22 -9 -19 12 0 4 -4 7 -9 7 -5 0 -9 3 -8 8
2 11 -14 45 -29 60 -7 8 -11 17 -8 22 3 4 -2 11 -11 14 -10 4 -14 14 -11 25 3
14 1 18 -10 14 -12 -5 -14 -1 -8 18 4 16 3 19 -3 11 -7 -10 -13 -7 -27 15 -10
15 -24 32 -32 36 -7 4 -13 12 -13 17 0 13 -120 130 -133 130 -5 0 -6 7 -3 16
3 8 2 12 -4 9 -6 -4 -17 0 -25 7 -26 23 -39 33 -78 57 -20 12 -35 27 -32 32 4
5 0 6 -8 3 -8 -3 -23 3 -32 13 -10 10 -20 17 -22 16 -5 -4 -98 40 -104 50 -4
5 -11 7 -17 3 -6 -3 -15 2 -21 11 -6 10 -11 13 -11 6 0 -8 -9 -7 -30 3 -16 9
-42 17 -57 20 -16 3 -37 8 -48 11 -11 4 -31 8 -45 9 -14 1 -25 3 -25 4 0 9
-337 24 -347 15z m787 -2236 c-4 -6 -13 -8 -20 -5 -8 3 -19 -2 -26 -10 -7 -9
-20 -13 -29 -11 -9 2 -22 -4 -29 -15 -7 -11 -16 -16 -24 -11 -7 4 -16 8 -21 8
-5 0 -11 6 -13 13 -3 6 -1 12 4 12 5 0 15 -6 22 -12 11 -11 12 -8 6 12 -3 14
-3 21 2 15 17 -21 35 -16 28 7 -4 16 -3 19 3 10 7 -11 10 -11 15 2 4 9 13 13
21 10 9 -3 17 3 21 16 6 20 7 20 26 -5 11 -13 17 -30 14 -36z m-1075 -43 c0
-2 -6 -9 -14 -15 -11 -9 -16 -9 -22 0 -4 8 -3 9 4 5 7 -4 12 -2 12 3 0 6 5 11
10 11 6 0 10 -2 10 -4z m310 -112 c7 -7 0 -10 -24 -10 -19 1 -40 6 -46 12 -8
8 -1 11 25 9 19 0 40 -6 45 -11z m112 -26 c-7 -7 -12 -8 -12 -2 0 14 12 26 19
19 2 -3 -1 -11 -7 -17z"/>
<path d="M1996 364 c-4 -9 -13 -14 -21 -10 -8 3 -15 4 -15 2 0 -3 -3 -13 -6
-23 -5 -15 -4 -15 5 -3 9 13 11 13 11 0 0 -9 6 -6 16 9 12 16 19 19 24 11 4
-7 10 -8 13 -4 3 5 -1 14 -8 21 -10 10 -14 9 -19 -3z"/>
<path d="M270 1850 c0 -5 5 -10 11 -10 5 0 7 5 4 10 -3 6 -8 10 -11 10 -2 0
-4 -4 -4 -10z"/>
<path d="M2550 1652 c0 -5 7 -9 15 -9 8 0 12 4 9 9 -3 4 -9 8 -15 8 -5 0 -9
-4 -9 -8z"/>
<path d="M195 1630 c-3 -5 -1 -10 4 -10 6 0 11 5 11 10 0 6 -2 10 -4 10 -3 0
-8 -4 -11 -10z"/>
<path d="M2570 1586 c0 -2 8 -10 18 -17 15 -13 16 -12 3 4 -13 16 -21 21 -21
13z"/>
<path d="M194 1538 c1 -14 -4 -22 -12 -20 -8 1 -11 -2 -7 -9 5 -8 10 -8 18 0
14 14 20 51 8 51 -5 0 -8 -10 -7 -22z"/>
<path d="M2587 1429 c7 -7 15 -10 18 -7 3 3 -2 9 -12 12 -14 6 -15 5 -6 -5z"/>
<path d="M177 1415 c-4 -8 -3 -16 1 -19 4 -3 9 4 9 15 2 23 -3 25 -10 4z"/>
<path d="M175 1350 c-3 -6 1 -7 9 -4 18 7 21 14 7 14 -6 0 -13 -4 -16 -10z"/>
<path d="M190 1270 c0 -5 5 -10 11 -10 5 0 7 5 4 10 -3 6 -8 10 -11 10 -2 0
-4 -4 -4 -10z"/>
<path d="M2590 1270 c0 -5 5 -10 11 -10 5 0 7 5 4 10 -3 6 -8 10 -11 10 -2 0
-4 -4 -4 -10z"/>
<path d="M175 1210 c-2 -3 5 -7 16 -7 10 -1 19 2 19 6 0 9 -29 10 -35 1z"/>
<path d="M210 1161 c0 -5 5 -13 10 -16 6 -3 10 -2 10 4 0 5 -4 13 -10 16 -5 3
-10 2 -10 -4z"/>
<path d="M2580 1136 c0 -2 8 -10 18 -17 15 -13 16 -12 3 4 -13 16 -21 21 -21
13z"/>
<path d="M213 1106 c0 -8 6 -12 14 -9 7 3 10 9 7 14 -8 14 -21 11 -21 -5z"/>
<path d="M206 1072 c-3 -5 1 -9 9 -9 8 0 12 4 9 9 -3 4 -7 8 -9 8 -2 0 -6 -4
-9 -8z"/>
<path d="M2545 1069 c-11 -16 -1 -19 13 -3 7 8 8 14 3 14 -5 0 -13 -5 -16 -11z"/>
<path d="M236 1013 c-6 -14 -5 -15 5 -6 7 7 10 15 7 18 -3 3 -9 -2 -12 -12z"/>
<path d="M2516 1011 c-3 -5 2 -15 12 -22 15 -13 16 -12 4 3 -10 13 -10 17 0
21 9 4 9 6 1 6 -6 1 -14 -3 -17 -8z"/>
<path d="M256 1001 c-3 -5 2 -15 12 -22 15 -12 16 -12 5 2 -7 9 -10 19 -6 22
3 4 4 7 0 7 -3 0 -8 -4 -11 -9z"/>
<path d="M235 971 c-3 -5 -2 -12 3 -15 5 -3 9 1 9 9 0 17 -3 19 -12 6z"/>
<path d="M2545 970 c-3 -6 1 -7 9 -4 18 7 21 14 7 14 -6 0 -13 -4 -16 -10z"/>
<path d="M256 944 c-5 -14 -4 -15 9 -4 17 14 19 20 6 20 -5 0 -12 -7 -15 -16z"/>
<path d="M275 930 c-3 -5 -3 -10 2 -10 4 0 1 -5 -7 -10 -11 -7 -11 -10 -2 -10
7 0 10 -5 6 -11 -4 -8 0 -8 15 0 25 14 28 23 4 14 -15 -6 -16 -4 -5 9 8 10 9
19 3 22 -5 4 -12 2 -16 -4z"/>
<path d="M2473 883 c0 -10 4 -10 16 -1 9 7 18 13 20 15 2 1 -5 1 -16 0 -11 0
-20 -7 -20 -14z"/>
<path d="M2496 872 c-3 -4 4 -9 15 -9 23 -2 25 3 4 10 -8 4 -16 3 -19 -1z"/>
<path d="M2453 855 c0 -7 6 -11 14 -8 7 3 13 6 13 8 0 2 -6 5 -13 8 -8 3 -14
-1 -14 -8z"/>
<path d="M343 783 c-14 -5 -18 -24 -5 -22 4 1 14 1 22 0 13 -1 13 -2 0 -11 -8
-5 -10 -10 -4 -10 20 0 34 23 23 37 -12 14 -16 15 -36 6z m32 -13 c3 -6 -1 -7
-9 -4 -18 7 -21 14 -7 14 6 0 13 -4 16 -10z"/>
<path d="M2377 734 c-10 -13 -18 -27 -18 -31 0 -5 -5 -14 -11 -20 -6 -7 -7
-13 -2 -13 4 0 -1 -6 -11 -14 -11 -8 -23 -12 -26 -10 -4 2 -6 -4 -5 -13 0 -10
-6 -18 -14 -18 -8 0 -15 -4 -15 -10 0 -19 -16 -35 -28 -28 -7 4 -7 0 1 -10 18
-22 6 -42 -16 -25 -13 12 -14 10 -4 -9 7 -12 17 -25 24 -29 7 -4 8 -3 4 4 -4
7 -4 17 0 24 5 8 10 6 16 -8 6 -13 7 -10 2 11 -4 24 -3 28 7 18 7 -7 17 -13
22 -13 5 0 -1 9 -14 20 -13 10 -19 19 -13 20 5 0 16 -6 23 -12 10 -9 12 -9 7
-1 -3 6 2 16 11 22 10 6 13 11 8 11 -6 0 -16 -5 -23 -12 -8 -8 -12 -8 -12 -1
0 20 29 36 43 24 10 -8 14 -7 14 4 0 8 -4 12 -8 9 -4 -2 -10 0 -14 6 -6 9 7
14 31 11 6 -1 18 7 25 16 13 16 12 17 -4 4 -9 -8 -20 -11 -23 -9 -3 3 8 15 24
27 19 13 30 29 30 46 0 35 -10 37 -31 9z m20 -13 c1 -11 -10 -27 -25 -37 -24
-16 -26 -16 -13 -1 7 9 10 17 6 17 -5 0 0 9 10 20 22 24 20 24 22 1z"/>
<path d="M335 710 c3 -5 8 -10 11 -10 2 0 4 5 4 10 0 6 -5 10 -11 10 -5 0 -7
-4 -4 -10z"/>
<path d="M414 687 c3 -6 9 -20 12 -29 4 -10 11 -18 18 -18 6 0 4 -5 -4 -10 -8
-5 -10 -10 -4 -10 6 0 16 6 22 13 9 10 4 20 -19 40 -17 15 -28 21 -25 14z"/>
<path d="M393 657 c0 -8 6 -14 13 -14 7 0 10 6 7 14 -3 7 -8 13 -12 13 -4 0
-8 -6 -8 -13z"/>
<path d="M347 649 c7 -7 15 -10 18 -7 3 3 -2 9 -12 12 -14 6 -15 5 -6 -5z"/>
<path d="M555 542 c2 -12 -1 -24 -6 -27 -5 -4 -7 -11 -3 -16 3 -5 10 -7 15 -4
8 6 13 -9 10 -28 -1 -5 8 -5 20 -2 14 5 19 4 15 -4 -5 -7 -1 -9 11 -4 15 5 16
3 6 -8 -7 -7 -13 -18 -13 -23 0 -6 5 -4 10 4 7 10 10 11 11 3 3 -28 4 -32 11
-38 4 -4 5 4 2 18 -4 23 -2 25 23 21 l28 -4 -29 24 c-15 13 -33 23 -40 23 -30
-1 -46 4 -46 14 0 5 6 7 13 3 6 -4 1 5 -13 20 -14 15 -23 30 -22 33 2 2 1 7
-2 10 -3 3 -4 -4 -1 -15z m19 -30 c3 -5 -1 -9 -9 -9 -8 0 -12 4 -9 9 3 4 7 8
9 8 2 0 6 -4 9 -8z m75 -55 c8 -10 7 -14 -2 -14 -8 0 -14 6 -14 14 0 7 1 13 2
13 2 0 8 -6 14 -13z"/>
<path d="M2196 463 c-6 -14 -5 -15 5 -6 7 7 10 15 7 18 -3 3 -9 -2 -12 -12z"/>
<path d="M2176 431 c-3 -4 4 -17 17 -27 22 -19 22 -19 4 2 -9 11 -14 24 -10
27 3 4 4 7 0 7 -3 0 -8 -4 -11 -9z"/>
<path d="M2060 409 c0 -5 5 -7 10 -4 6 3 10 8 10 11 0 2 -4 4 -10 4 -5 0 -10
-5 -10 -11z"/>
<path d="M715 388 c-4 -10 -12 -15 -18 -11 -6 3 -7 1 -3 -6 6 -9 11 -9 22 0
17 14 19 -2 2 -19 -9 -9 -9 -12 -1 -12 7 0 14 9 18 20 5 16 9 17 20 7 7 -6 10
-16 7 -22 -3 -5 3 -3 13 5 17 13 18 13 13 -1 -8 -20 -1 -29 36 -53 23 -15 30
-16 37 -5 7 12 9 12 9 0 0 -8 3 -11 7 -8 3 4 -3 16 -15 28 -13 11 -19 25 -16
31 5 7 2 9 -9 5 -8 -3 -21 1 -28 9 -7 8 -18 13 -25 10 -15 -6 -37 18 -26 30 4
4 0 3 -10 -4 -13 -10 -17 -10 -21 0 -3 9 -7 8 -12 -4z m135 -90 c0 -5 -14 0
-30 12 -17 12 -27 26 -24 32 6 10 54 -29 54 -44z"/>
<path d="M630 372 c0 -5 7 -9 15 -9 8 0 12 4 9 9 -3 4 -9 8 -15 8 -5 0 -9 -4
-9 -8z"/>
<path d="M670 366 c0 -2 8 -10 18 -17 15 -13 16 -12 3 4 -13 16 -21 21 -21 13z"/>
<path d="M2105 350 c-3 -6 1 -7 9 -4 18 7 21 14 7 14 -6 0 -13 -4 -16 -10z"/>
<path d="M740 345 c0 -5 5 -17 10 -25 5 -8 10 -10 10 -5 0 6 -5 17 -10 25 -5
8 -10 11 -10 5z"/>
<path d="M2055 331 c-3 -5 -2 -12 3 -15 5 -3 9 1 9 9 0 17 -3 19 -12 6z"/>
<path d="M766 292 c-2 -4 4 -8 14 -8 10 0 16 4 14 8 -3 4 -9 8 -14 8 -5 0 -11
-4 -14 -8z"/>
<path d="M1936 271 c-4 -5 3 -7 14 -4 23 6 26 13 6 13 -8 0 -17 -4 -20 -9z"/>
<path d="M852 261 c-11 -7 -11 -9 0 -14 9 -3 15 1 15 9 0 8 -1 14 -1 14 -1 0
-7 -4 -14 -9z"/>
<path d="M1870 230 c0 -5 7 -7 15 -4 8 4 15 8 15 10 0 2 -7 4 -15 4 -8 0 -15
-4 -15 -10z"/>
<path d="M1916 228 c3 -4 11 -5 19 -1 21 7 19 12 -4 10 -11 0 -18 -5 -15 -9z"/>
<path d="M840 216 c0 -2 8 -10 18 -17 15 -13 16 -12 3 4 -13 16 -21 21 -21 13z"/>
<path d="M1065 210 c-3 -5 -1 -10 4 -10 6 0 11 5 11 10 0 6 -2 10 -4 10 -3 0
-8 -4 -11 -10z"/>
<path d="M1833 205 c0 -8 4 -12 9 -9 4 3 8 9 8 15 0 5 -4 9 -8 9 -5 0 -9 -7
-9 -15z"/>
<path d="M1311 191 c-14 -26 -14 -31 3 -31 24 0 38 26 22 39 -12 10 -17 8 -25
-8z m24 -11 c-3 -5 -11 -10 -16 -10 -6 0 -7 5 -4 10 3 6 11 10 16 10 6 0 7 -4
4 -10z"/>
<path d="M986 168 c3 -5 10 -6 15 -3 13 9 11 12 -6 12 -8 0 -12 -4 -9 -9z"/>
<path d="M1106 172 c-3 -5 1 -9 9 -9 8 0 12 4 9 9 -3 4 -7 8 -9 8 -2 0 -6 -4
-9 -8z"/>
<path d="M1535 149 c-4 -6 -5 -12 -2 -15 2 -3 7 2 10 11 7 17 1 20 -8 4z"/>
<path d="M1222 134 c-7 -8 -8 -14 -3 -14 10 0 25 19 20 25 -2 1 -10 -3 -17
-11z"/>
<path d="M1254 139 c-3 -6 -2 -15 3 -20 5 -5 9 -1 9 11 0 23 -2 24 -12 9z"/>
<path d="M1293 136 c0 -7 6 -13 14 -13 7 0 13 4 13 8 0 4 -6 9 -13 12 -8 3
-14 0 -14 -7z"/>
<path d="M1397 143 c-10 -9 -9 -23 1 -23 5 0 9 7 9 15 0 17 -1 18 -10 8z"/>
<path d="M1453 121 c0 -11 5 -18 9 -15 4 3 5 11 1 19 -7 21 -12 19 -10 -4z"/>
<path d="M1589 113 c-13 -16 -12 -17 4 -4 16 13 21 21 13 21 -2 0 -10 -8 -17
-17z"/>
<path d="M1525 110 c-3 -6 1 -7 9 -4 18 7 21 14 7 14 -6 0 -13 -4 -16 -10z"/>
<path d="M1315 101 c-3 -5 -2 -12 3 -15 5 -3 9 1 9 9 0 17 -3 19 -12 6z"/>
<path d="M1393 85 c0 -8 4 -12 9 -9 5 3 6 10 3 15 -9 13 -12 11 -12 -6z"/>
</g>
</svg>
